<svg xmlns="http://www.w3.org/2000/svg" viewBox="0 0 1600 900" preserveAspectRatio="xMidYMid slice">
  <defs>
    <linearGradient id="sky2" x1="0" y1="0" x2="0" y2="1">
      <stop offset="0" stop-color="#091528"/><stop offset="0.62" stop-color="#0b1a30"/><stop offset="1" stop-color="#04070f"/>
    </linearGradient>
    <linearGradient id="water" x1="0" y1="0" x2="0" y2="1">
      <stop offset="0" stop-color="#0d1d36"/><stop offset="1" stop-color="#04070f"/>
    </linearGradient>
    <linearGradient id="portal" x1="0" y1="0" x2="0" y2="1">
      <stop offset="0" stop-color="#ffe9c9"/><stop offset="0.55" stop-color="#f9a03f"/><stop offset="1" stop-color="#b45309"/>
    </linearGradient>
    <radialGradient id="pglow" cx="0.5" cy="0.5" r="0.5">
      <stop offset="0" stop-color="#f9a03f" stop-opacity="0.55"/><stop offset="1" stop-color="#f9a03f" stop-opacity="0"/>
    </radialGradient>
    <filter id="grain2"><feTurbulence type="fractalNoise" baseFrequency="0.9" numOctaves="2" stitchTiles="stitch"/><feColorMatrix type="matrix" values="0 0 0 0 1  0 0 0 0 1  0 0 0 0 1  0 0 0 0.05 0"/></filter>
    <filter id="soft2" x="-60%" y="-60%" width="220%" height="220%"><feGaussianBlur stdDeviation="16"/></filter>
  </defs>
  <rect width="1600" height="900" fill="url(#sky2)"/>
  <rect y="560" width="1600" height="340" fill="url(#water)"/>
  <ellipse cx="800" cy="560" rx="520" ry="150" fill="url(#pglow)" filter="url(#soft2)"/>
  <rect x="756" y="330" width="88" height="230" rx="6" fill="none" stroke="url(#portal)" stroke-width="10"/>
  <rect x="778" y="352" width="44" height="208" fill="url(#portal)" opacity="0.85"/>
  <rect x="780" y="566" width="40" height="200" fill="#f9a03f" opacity="0.25"/>
  <g stroke="#7dd3fc" opacity="0.35">
    <line x1="180" y1="620" x2="480" y2="620"/><line x1="1120" y1="660" x2="1460" y2="660"/>
    <line x1="240" y1="700" x2="520" y2="700"/><line x1="1060" y1="730" x2="1380" y2="730"/>
  </g>
  <g opacity="0.6">
    <rect x="0" y="410" width="1600" height="2" fill="#7dd3fc" opacity="0.2"/>
    <rect x="980" y="407" width="380" height="2" fill="#f0abfc" opacity="0.3"/>
  </g>
  <rect width="1600" height="900" filter="url(#grain2)"/>
</svg>
