<svg xmlns="http://www.w3.org/2000/svg" viewBox="0 0 1600 900" preserveAspectRatio="xMidYMid slice">
  <defs>
    <linearGradient id="sky1" x1="0" y1="0" x2="0" y2="1">
      <stop offset="0" stop-color="#0c1b30"/><stop offset="0.6" stop-color="#091428"/><stop offset="1" stop-color="#04070f"/>
    </linearGradient>
    <linearGradient id="tower" x1="0" y1="0" x2="0" y2="1">
      <stop offset="0" stop-color="#16233d"/><stop offset="1" stop-color="#070d1a"/>
    </linearGradient>
    <radialGradient id="moon" cx="0.5" cy="0.5" r="0.5">
      <stop offset="0" stop-color="#bfe9ff" stop-opacity="0.9"/><stop offset="0.55" stop-color="#7cc7ee" stop-opacity="0.35"/><stop offset="1" stop-color="#7cc7ee" stop-opacity="0"/>
    </radialGradient>
    <filter id="grain1"><feTurbulence type="fractalNoise" baseFrequency="0.9" numOctaves="2" stitchTiles="stitch"/><feColorMatrix type="matrix" values="0 0 0 0 1  0 0 0 0 1  0 0 0 0 1  0 0 0 0.05 0"/></filter>
  </defs>
  <rect width="1600" height="900" fill="url(#sky1)"/>
  <circle cx="1150" cy="250" r="180" fill="url(#moon)"/>
  <g fill="url(#tower)">
    <rect x="560" y="260" width="120" height="640"/>
    <rect x="700" y="180" width="90" height="720"/>
    <rect x="810" y="320" width="150" height="580"/>
    <rect x="985" y="240" width="70" height="660"/>
    <rect x="1075" y="380" width="120" height="520"/>
    <rect x="420" y="420" width="110" height="480"/>
    <polygon points="700,180 745,120 790,180"/>
  </g>
  <g fill="#8be9ff" opacity="0.8">
    <rect x="586" y="300" width="8" height="3"/><rect x="612" y="340" width="8" height="3"/><rect x="640" y="300" width="8" height="3"/>
    <rect x="722" y="230" width="8" height="3"/><rect x="748" y="270" width="8" height="3"/><rect x="722" y="320" width="8" height="3"/>
    <rect x="840" y="360" width="8" height="3"/><rect x="880" y="410" width="8" height="3"/><rect x="920" y="360" width="8" height="3"/>
    <rect x="1002" y="280" width="8" height="3"/><rect x="1100" y="420" width="8" height="3"/><rect x="1140" y="470" width="8" height="3"/>
    <rect x="450" y="460" width="8" height="3"/><rect x="490" y="510" width="8" height="3"/>
  </g>
  <g stroke="#f97316" stroke-width="2" opacity="0.7">
    <line x1="745" y1="120" x2="745" y2="96"/><circle cx="745" cy="92" r="3" fill="#f97316" stroke="none"/>
  </g>
  <rect y="820" width="1600" height="80" fill="#04070f"/>
  <rect y="815" width="1600" height="2" fill="#22d3ee" opacity="0.2"/>
  <rect width="1600" height="900" filter="url(#grain1)"/>
</svg>
