<svg xmlns="http://www.w3.org/2000/svg" viewBox="0 0 1600 900" preserveAspectRatio="xMidYMid slice">
  <defs>
    <linearGradient id="sky" x1="0" y1="0" x2="0" y2="1">
      <stop offset="0" stop-color="#0a1626"/><stop offset="0.55" stop-color="#0a1830"/><stop offset="1" stop-color="#04070f"/>
    </linearGradient>
    <linearGradient id="floor" x1="0" y1="0" x2="0" y2="1">
      <stop offset="0" stop-color="#0e1c33"/><stop offset="1" stop-color="#04070f"/>
    </linearGradient>
    <linearGradient id="cubeL" x1="0" y1="0" x2="1" y2="0">
      <stop offset="0" stop-color="#0b1424"/><stop offset="1" stop-color="#131f36"/>
    </linearGradient>
    <linearGradient id="cubeR" x1="0" y1="0" x2="1" y2="0">
      <stop offset="0" stop-color="#070d1a"/><stop offset="1" stop-color="#0b1322"/>
    </linearGradient>
    <linearGradient id="door" x1="0" y1="0" x2="0" y2="1">
      <stop offset="0" stop-color="#ffd9a8"/><stop offset="0.5" stop-color="#f97316"/><stop offset="1" stop-color="#7c2d12"/>
    </linearGradient>
    <linearGradient id="beam" x1="0" y1="0" x2="0" y2="1">
      <stop offset="0" stop-color="#9be8ff" stop-opacity="0"/><stop offset="0.5" stop-color="#9be8ff" stop-opacity="0.55"/><stop offset="1" stop-color="#9be8ff" stop-opacity="0"/>
    </linearGradient>
    <radialGradient id="glow" cx="0.5" cy="0.5" r="0.5">
      <stop offset="0" stop-color="#f97316" stop-opacity="0.5"/><stop offset="1" stop-color="#f97316" stop-opacity="0"/>
    </radialGradient>
    <radialGradient id="haze" cx="0.5" cy="0.35" r="0.8">
      <stop offset="0" stop-color="#38bdf8" stop-opacity="0.14"/><stop offset="1" stop-color="#38bdf8" stop-opacity="0"/>
    </radialGradient>
    <filter id="grain"><feTurbulence type="fractalNoise" baseFrequency="0.9" numOctaves="2" stitchTiles="stitch"/><feColorMatrix type="matrix" values="0 0 0 0 1  0 0 0 0 1  0 0 0 0 1  0 0 0 0.05 0"/></filter>
    <filter id="soft" x="-40%" y="-40%" width="180%" height="180%"><feGaussianBlur stdDeviation="14"/></filter>
  </defs>
  <rect width="1600" height="900" fill="url(#sky)"/>
  <rect width="1600" height="900" fill="url(#haze)"/>
  <rect y="640" width="1600" height="260" fill="url(#floor)"/>
  <g opacity="0.7">
    <rect x="1050" y="60" width="5" height="620" fill="url(#beam)"/>
    <rect x="1120" y="20" width="2.5" height="700" fill="url(#beam)" opacity="0.8"/>
    <rect x="1220" y="120" width="7" height="560" fill="url(#beam)" opacity="0.6"/>
    <rect x="1330" y="80" width="3" height="620" fill="url(#beam)" opacity="0.9"/>
    <rect x="430" y="140" width="3" height="520" fill="url(#beam)" opacity="0.45"/>
    <rect x="320" y="200" width="5" height="460" fill="url(#beam)" opacity="0.3"/>
  </g>
  <g>
    <polygon points="620,300 830,240 830,640 620,700" fill="url(#cubeL)"/>
    <polygon points="830,240 1010,300 1010,660 830,640" fill="url(#cubeR)"/>
    <polygon points="620,300 830,240 1010,300 800,352" fill="#162441"/>
    <rect x="806" y="430" width="26" height="210" fill="url(#door)"/>
    <ellipse cx="820" cy="672" rx="240" ry="46" fill="url(#glow)" filter="url(#soft)"/>
  </g>
  <g opacity="0.5">
    <polygon points="620,700 830,640 830,830 620,880" fill="#0b1526" opacity="0.6"/>
    <polygon points="830,640 1010,660 1010,840 830,830" fill="#08101f" opacity="0.6"/>
    <rect x="808" y="646" width="22" height="150" fill="#f97316" opacity="0.28"/>
  </g>
  <g opacity="0.5">
    <rect x="0" y="452" width="1600" height="3" fill="#7dd3fc" opacity="0.25"/>
    <rect x="120" y="449" width="300" height="2" fill="#f0abfc" opacity="0.35"/>
    <rect x="900" y="456" width="420" height="2" fill="#fca5a5" opacity="0.3"/>
  </g>
  <rect width="1600" height="900" filter="url(#grain)"/>
</svg>
