<svg xmlns="http://www.w3.org/2000/svg" viewBox="0 0 800 500" preserveAspectRatio="xMidYMid slice">
  <defs>
    <linearGradient id="bg1" x1="0" y1="0" x2="0" y2="1"><stop offset="0" stop-color="#0a1424"/><stop offset="1" stop-color="#04070f"/></linearGradient>
    <linearGradient id="curve" x1="0" y1="0" x2="1" y2="0"><stop offset="0" stop-color="#22d3ee" stop-opacity="0.05"/><stop offset="0.5" stop-color="#8be9ff" stop-opacity="0.7"/><stop offset="1" stop-color="#22d3ee" stop-opacity="0.05"/></linearGradient>
    <filter id="g1"><feTurbulence type="fractalNoise" baseFrequency="0.9" numOctaves="2" stitchTiles="stitch"/><feColorMatrix type="matrix" values="0 0 0 0 1  0 0 0 0 1  0 0 0 0 1  0 0 0 0.05 0"/></filter>
  </defs>
  <rect width="800" height="500" fill="url(#bg1)"/>
  <g fill="none" stroke="url(#curve)">
    <path d="M-40 420 C 220 380, 420 300, 840 60" stroke-width="34" opacity="0.35"/>
    <path d="M-40 440 C 240 400, 460 320, 840 100" stroke-width="18" opacity="0.6"/>
    <path d="M-40 460 C 260 420, 500 340, 840 140" stroke-width="7" opacity="0.9"/>
    <path d="M-40 476 C 280 440, 520 360, 840 180" stroke-width="2.5"/>
  </g>
  <g fill="#8be9ff" opacity="0.7">
    <circle cx="180" cy="404" r="2"/><circle cx="330" cy="360" r="2"/><circle cx="480" cy="300" r="2"/><circle cx="620" cy="230" r="2"/>
  </g>
  <rect x="60" y="70" width="120" height="1.5" fill="#f97316" opacity="0.6"/>
  <rect width="800" height="500" filter="url(#g1)"/>
</svg>
